# xmcd
#
# Track frame offsets: 
#        150
#        21724
#        44630
#        62212
#        77247
#        95259
#        116959
#        154615
#        175179
#        201008
#
# Disc length: 2912 seconds
#
# Revision: 1
# Processed by: cddbd v1.5.1PL2 Copyright (c) Steve Scherf et al.
# Submitted via: ExactAudioCopy v0.95b4
#
DISCID=8b0b5e0a
DTITLE=Symbols - Symbols
DYEAR=1900
DGENRE=Heavy Metal
TTITLE0=Scream Of People
TTITLE1=What Can I Do
TTITLE2=Hard Feelings
TTITLE3=Save My Soul
TTITLE4=Like Mars
TTITLE5=Love Trought The Night
TTITLE6=Rest In Paradise
TTITLE7=You
TTITLE8=What Can I Do (bonus)
TTITLE9=The Indian's Soul (bonus)
EXTD=
EXTT0=
EXTT1=
EXTT2=
EXTT3=
EXTT4=
EXTT5=
EXTT6=
EXTT7=
EXTT8=
EXTT9=
PLAYORDER=
